<?xml version="1.0" encoding="iso-8859-1"?>
<!-- Generator: Adobe Illustrator 19.0.0, SVG Export Plug-In . SVG Version: 6.00 Build 0)  -->
<svg version="1.1" id="Capa_1" xmlns="http://www.w3.org/2000/svg" xmlns:xlink="http://www.w3.org/1999/xlink" x="0px" y="0px"
	 viewBox="0 0 368 368" style="enable-background:new 0 0 368 368;" xml:space="preserve">
<path style="fill:#CCE4FF;" d="M296,152c17.68,0,32,14.32,32,32s-14.32,32-32,32v80c17.68,0,32,14.32,32,32s-14.32,32-32,32H72
	c-17.68,0-32-14.32-32-32s14.32-32,32-32v-80c-17.68,0-32-14.32-32-32s14.32-32,32-32V72c-17.68,0-32-14.32-32-32S54.32,8,72,8h224
	c17.68,0,32,14.32,32,32s-14.32,32-32,32V152z"/>
<path style="fill:#007AFF;" d="M32,328c0,22.056,17.944,40,40,40h224c22.056,0,40-17.944,40-40c0-19.312-13.768-35.472-32-39.192
	v-65.616c18.232-3.72,32-19.872,32-39.192s-13.768-35.472-32-39.192V79.192c18.232-3.72,32-19.872,32-39.192
	c0-22.056-17.944-40-40-40H72C49.944,0,32,17.944,32,40c0,19.312,13.768,35.472,32,39.192v65.616C45.768,148.528,32,164.68,32,184
	s13.768,35.472,32,39.192v65.616C45.768,292.528,32,308.688,32,328z M48,184c0-13.232,10.768-24,24-24h48c4.424,0,8-3.576,8-8
	s-3.576-8-8-8H80V80h104c4.424,0,8-3.576,8-8s-3.576-8-8-8H72c-13.232,0-24-10.768-24-24s10.768-24,24-24h224
	c13.232,0,24,10.768,24,24s-10.768,24-24,24h-48c-4.424,0-8,3.576-8,8s3.576,8,8,8h40v64H184c-4.424,0-8,3.576-8,8s3.576,8,8,8h112
	c13.232,0,24,10.768,24,24s-10.768,24-24,24h-46.64c-4.424,0-8,3.576-8,8s3.576,8,8,8H288v64H184c-4.424,0-8,3.576-8,8s3.576,8,8,8
	h112c13.232,0,24,10.768,24,24s-10.768,24-24,24H72c-13.232,0-24-10.768-24-24s10.768-24,24-24h48c4.424,0,8-3.576,8-8s-3.576-8-8-8
	H80v-64h104c4.424,0,8-3.576,8-8s-3.576-8-8-8H72C58.768,208,48,197.232,48,184z"/>
<g>
</g>
<g>
</g>
<g>
</g>
<g>
</g>
<g>
</g>
<g>
</g>
<g>
</g>
<g>
</g>
<g>
</g>
<g>
</g>
<g>
</g>
<g>
</g>
<g>
</g>
<g>
</g>
<g>
</g>
</svg>
